<svg xmlns="http://www.w3.org/2000/svg" viewBox="0 0 139 139"><defs><style>.cls-1{fill:#ec6662;}.cls-2{fill:#fff5ef;}</style></defs><g id="Camada_2" data-name="Camada 2"><g id="Camada_1-2" data-name="Camada 1"><circle class="cls-1" cx="69.5" cy="69.5" r="69.5"/><path class="cls-2" d="M90.36,70.91a27.22,27.22,0,0,0-45.83,0L32.4,89.82a17.23,17.23,0,0,0,21.44,25.07l.23-.1a33.86,33.86,0,0,1,27,.1A17.15,17.15,0,0,0,88,116.35a16.87,16.87,0,0,0,3.86-.44,17.23,17.23,0,0,0,10.67-26.09Z"/><path class="cls-2" d="M35.67,70.88a13.19,13.19,0,0,0,7.71-8.18,17.57,17.57,0,0,0-8-20.71,13.19,13.19,0,0,0-11.2-.9c-7.25,2.79-10.57,11.74-7.41,20,2.52,6.54,8.41,10.67,14.36,10.67A12.46,12.46,0,0,0,35.67,70.88Z"/><path class="cls-2" d="M59.19,56.07c9,0,16.42-8.39,16.42-18.71S68.24,18.65,59.19,18.65,42.77,27,42.77,37.36,50.14,56.07,59.19,56.07Z"/><path class="cls-2" d="M87.55,60.67h0a13.42,13.42,0,0,0,4.23.68c6.6,0,13-4.81,15.49-12.19A18.39,18.39,0,0,0,107,36.5a13.88,13.88,0,0,0-20.58-6.84,18.37,18.37,0,0,0-7.79,10C75.66,48.61,79.66,58,87.55,60.67Z"/><path class="cls-2" d="M124,79.69c5.23-7.08,4.41-16.59-1.82-21.21h0c-6.24-4.61-15.58-2.61-20.81,4.46s-4.42,16.59,1.82,21.2a12.79,12.79,0,0,0,7.71,2.49A16.59,16.59,0,0,0,124,79.69"/></g></g></svg>
